<svg width="68" height="26" viewBox="0 0 68 26" fill="none" xmlns="http://www.w3.org/2000/svg">
<path fill-rule="evenodd" clip-rule="evenodd" d="M12.9931 26C20.1667 26 25.9843 20.1784 25.9843 12.9993C25.9843 5.81893 20.1667 8.92575e-06 12.9931 8.92575e-06C5.81685 8.92575e-06 -8.01176e-05 5.81893 -8.01176e-05 12.9993C-8.01176e-05 20.1784 5.81685 26 12.9931 26ZM20.3181 9.65149C18.6137 9.65149 17.2274 11.1305 17.2274 12.9474C17.2274 14.7711 18.6137 16.2549 20.3181 16.2549C22.0212 16.2549 23.4062 14.7711 23.4062 12.9474C23.4062 11.0995 22.0496 9.65149 20.3181 9.65149ZM20.3181 17.517C17.9148 17.517 15.9592 15.467 15.9592 12.9474C15.9592 10.4353 17.9148 8.39136 20.3181 8.39136C22.7559 8.39136 24.665 10.3927 24.665 12.9474C24.665 15.467 22.7147 17.517 20.3181 17.517ZM10.2438 14.1596C10.2438 12.9731 11.1325 12.0778 12.3115 12.0778C13.4852 12.0778 14.3698 12.9731 14.3698 14.1596C14.3698 15.3467 13.4852 16.242 12.3115 16.242C11.1325 16.242 10.2438 15.3467 10.2438 14.1596ZM8.98505 14.1596C8.98505 16.0569 10.4153 17.488 12.3115 17.488C14.2023 17.488 15.6285 16.0569 15.6285 14.1596C15.6285 12.2623 14.2023 10.8312 12.3115 10.8312C12.2696 10.8312 12.2278 10.8319 12.1859 10.8339L13.8971 8.57309H12.3338L9.65628 12.1204C9.21735 12.6988 8.98505 13.4042 8.98505 14.1596ZM1.95093 14.8057C2.22509 16.4023 3.57229 17.5171 5.22607 17.5171C7.12296 17.5171 8.55322 16.0786 8.55322 14.1712C8.55322 12.7205 7.72058 11.5347 6.45374 11.0698L8.91787 8.58673H2.50399V9.84416H5.90001C5.74739 9.99822 5.58533 10.1617 5.42393 10.3239C4.96474 10.7861 4.51635 11.2381 4.32997 11.4307L3.4028 12.3861L4.70948 12.13C4.83576 12.105 5.00525 12.0928 5.22607 12.0928C6.40512 12.0928 7.29448 12.9861 7.29448 14.1712C7.29448 15.3685 6.40512 16.2705 5.22607 16.2705C4.21247 16.2705 3.39469 15.6192 3.19076 14.6489L3.1212 14.3178H1.86652L1.95093 14.8057Z" fill="#F797AB"/>
<path d="M29.753 16.3424H31.5486C33.3847 16.3424 34.4814 15.1046 34.4814 13.031C34.4814 10.91 33.4394 9.74177 31.5486 9.74177H29.753V16.3424ZM31.5486 17.3215H28.7455V8.75934H31.5486C34.0134 8.75934 35.4842 10.356 35.4842 13.031C35.4842 15.637 33.9398 17.3215 31.5486 17.3215Z" fill="#F797AB"/>
<path d="M36.3103 8.75934H37.3178V17.3215H36.3103V8.75934Z" fill="#F797AB"/>
<path d="M39.6281 13.1356H43.7082V11.5309C43.7082 10.4363 42.7911 9.54575 41.6634 9.54575C40.5411 9.54575 39.6281 10.4363 39.6281 11.5309V13.1356ZM44.7184 17.3235H43.7082V14.1174H39.6281V17.3235H38.6253V11.5309C38.6253 9.89508 39.988 8.564 41.6634 8.564C43.3482 8.564 44.7184 9.89508 44.7184 11.5309V17.3235Z" fill="#F797AB"/>
<path d="M50.9167 17.3215H48.3608C46.8205 17.3215 45.7447 16.2722 45.7447 14.7695V8.75934H46.7495V14.7695C46.7495 15.7249 47.3816 16.3425 48.3608 16.3425H50.9167V17.3215Z" fill="#F797AB"/>
<path d="M54.5854 9.54643C52.7473 9.54643 51.2515 11.1005 51.2515 13.0113C51.2515 14.9235 52.7473 16.4789 54.5854 16.4789C56.4188 16.4789 57.9099 14.9235 57.9099 13.0113C57.9099 11.068 56.4499 9.54643 54.5854 9.54643ZM54.5854 17.4647C52.1942 17.4647 50.2487 15.4667 50.2487 13.0113C50.2487 10.5593 52.1942 8.564 54.5854 8.564C57.0144 8.564 58.9174 10.5174 58.9174 13.0113C58.9174 15.4667 56.9739 17.4647 54.5854 17.4647Z" fill="#F797AB"/>
<path d="M63.7409 17.4647C61.3491 17.4647 59.4022 15.4667 59.4022 13.0113C59.4022 10.5593 61.3491 8.564 63.7409 8.564C65.6419 8.564 67.2018 9.65859 67.8129 11.4194L67.9399 11.7863H66.8858L66.8149 11.6106C66.2935 10.318 65.1442 9.54643 63.7409 9.54643C61.9021 9.54643 60.4064 11.1005 60.4064 13.0113C60.4064 14.9235 61.9021 16.4789 63.7409 16.4789C65.5264 16.4789 66.7635 15.3768 66.96 13.6444H63.5417V12.6626H68.0007V13.1593C68.0007 15.7343 66.2888 17.4647 63.7409 17.4647Z" fill="#F797AB"/>
</svg>
